<svg width="220" height="52" viewBox="0 0 220 52" fill="none" xmlns="http://www.w3.org/2000/svg">
  <rect x="1" y="1" width="50" height="50" rx="16" fill="#5F6FFF"/>
  <path d="M16 26C16 20.4772 20.4772 16 26 16C31.5228 16 36 20.4772 36 26C36 31.5228 31.5228 36 26 36C20.4772 36 16 31.5228 16 26Z" fill="white" fill-opacity="0.16"/>
  <path d="M22 26C22 23.7909 23.7909 22 26 22C28.2091 22 30 23.7909 30 26C30 28.2091 28.2091 30 26 30C23.7909 30 22 28.2091 22 26Z" fill="white"/>
  <text x="60" y="33" fill="#000B6D" font-family="Arial, Helvetica, sans-serif" font-size="24" font-weight="700">Hospy</text>
</svg>
